<svg width="14" height="14" viewBox="0 0 14 14" fill="none" xmlns="http://www.w3.org/2000/svg">
<path fill-rule="evenodd" clip-rule="evenodd" d="M3 0C1.34315 0 0 1.34315 0 3V11C0 12.6569 1.34315 14 3 14H11C12.6569 14 14 12.6569 14 11V3C14 1.34315 12.6569 0 11 0H3ZM11.0684 4.86513C11.3391 4.55161 11.3044 4.07801 10.9909 3.80731C10.6773 3.53662 10.2037 3.57134 9.93305 3.88487L5.93534 8.51512L4.03867 6.56285C3.75003 6.26576 3.27521 6.2589 2.97812 6.54753C2.68102 6.83616 2.67417 7.31099 2.9628 7.60808L5.43001 10.1476C5.57657 10.2985 5.77974 10.3809 5.98997 10.3747C6.2002 10.3685 6.39818 10.2743 6.53563 10.1151L11.0684 4.86513Z" fill="#47F998"/>
</svg>
