<svg width="30" height="30" viewBox="0 0 30 30" fill="none" xmlns="http://www.w3.org/2000/svg">
<path d="M26.9969 9.30241C26.7196 8.26646 25.9054 7.45236 24.8695 7.17505C22.9937 6.67194 15.4687 6.67194 15.4687 6.67194C15.4687 6.67194 7.94377 6.67194 6.06797 7.17505C5.03203 7.45236 4.21793 8.26646 3.94062 9.30241C3.4375 11.1782 3.4375 15.0942 3.4375 15.0942C3.4375 15.0942 3.4375 19.0102 3.94062 20.886C4.21793 21.922 5.03203 22.7361 6.06797 23.0133C7.94377 23.5165 15.4687 23.5165 15.4687 23.5165C15.4687 23.5165 22.9937 23.5165 24.8695 23.0133C25.9054 22.7361 26.7196 21.922 26.9969 20.886C27.5 19.0102 27.5 15.0942 27.5 15.0942C27.5 15.0942 27.498 11.1782 26.9969 9.30241Z" fill="#FF0000"/>
<path d="M13.0625 18.7033L19.3138 15.0944L13.0625 11.4854V18.7033Z" fill="white"/>
</svg>
