<svg width="1004" height="171" viewBox="0 0 1004 171" fill="none" xmlns="http://www.w3.org/2000/svg">
<path d="M923.11 129.405V40.8513H941.544V80.1134H942.773L975.095 40.8513H997.339L964.157 80.4803L997.708 129.405H975.586L950.884 92.8338L941.544 104.087V129.405H923.11Z" fill="url(#paint0_linear_154_30)"/>
<path d="M847.652 129.405H827.743L858.589 40.8513H882.308L913.032 129.405H893.246L886.61 108.979H854.411L847.652 129.405ZM854.411 108.979H886.61L870.756 60.7881H870.142L854.411 108.979Z" fill="url(#paint1_linear_154_30)"/>
<path d="M740.628 129.777L712.417 40.8513H732.248L749.616 103.001H750.299L763.106 40.8513H783.798L796.605 103.124H797.288L814.656 40.8513H834.487L806.276 129.777H789.551L773.85 71.0663H773.168L757.353 129.777H740.628Z" fill="url(#paint2_linear_154_30)"/>
<path d="M640.518 129.777V41.2231H700.245V56.3898H656.878V77.9167L696.47 77.7992V93.0833H656.878V114.61H700.368V129.777H640.518Z" fill="url(#paint3_linear_154_30)"/>
<path d="M608.934 72.0457C607.459 62.2608 599.839 56.2675 589.516 56.2675C575.629 56.2675 566.534 66.9086 566.534 85.5C566.534 104.581 575.752 114.733 589.393 114.733C599.593 114.733 607.09 109.106 608.934 99.5659L627.614 99.6882C625.525 116.078 611.76 131 589.147 131C565.305 131 547.731 114.366 547.731 85.5C547.731 56.6344 565.674 40 589.147 40C609.671 40 625.156 51.7419 627.614 72.0457H608.934Z" fill="url(#paint4_linear_154_30)"/>
<path d="M478.172 129.777H458.263L489.11 41.2231H512.829L543.553 129.777H523.767L517.13 109.351H484.932L478.172 129.777ZM484.932 109.351H517.13L501.277 61.1599H500.662L484.932 109.351Z" fill="url(#paint5_linear_154_30)"/>
<path d="M395.217 129.777V41.2231H430.12C450.398 41.2231 461.95 53.5766 461.95 71.0672C461.95 88.8024 450.152 100.911 429.628 100.911H413.652V129.777H395.217ZM395.217 86.1116H426.679C437.617 86.1116 442.901 79.996 442.901 71.0672C442.901 62.2608 437.617 56.2675 426.679 56.2675H395.217V86.1116Z" fill="url(#paint6_linear_154_30)"/>
<path d="M364.248 66.5417C363.51 59.5699 357.857 55.4113 348.886 55.4113C339.546 55.4113 334.384 59.6922 334.261 65.5632C334.138 71.9234 340.897 74.8589 348.517 76.5712L356.505 78.5282C371.744 81.953 383.174 89.6586 383.174 104.458C383.174 120.726 370.392 131 348.763 131C327.256 131 313.492 121.093 313 102.134H330.943C331.557 111.063 338.685 115.589 348.517 115.589C358.226 115.589 364.493 111.063 364.493 104.458C364.493 98.4651 358.963 95.6519 349.254 93.2056L339.546 90.8817C324.552 87.2124 315.335 79.7513 315.335 66.7863C315.335 50.6411 329.591 40 349.009 40C368.672 40 381.699 50.8858 381.945 66.5417H364.248Z" fill="url(#paint7_linear_154_30)"/>
<path d="M203.559 87.111C203.559 133.442 166.057 171 119.797 171C73.5371 171 36.0358 133.442 36.0358 87.111C36.0358 40.7805 73.5371 3.22211 119.797 3.22211C166.057 3.22211 203.559 40.7805 203.559 87.111Z" fill="url(#paint8_linear_154_30)"/>
<path d="M218.926 119.373C217.25 123.916 213.379 127.848 206.975 130.844C200.544 133.853 191.882 135.745 181.427 136.271C160.535 137.323 133.48 132.871 105.347 122.456C77.2128 112.042 53.7715 97.8002 38.5846 83.3931C30.9842 76.1829 25.6333 69.1038 22.7023 62.629C19.7837 56.1817 19.3971 50.6733 21.0735 46.1309C22.7499 41.5885 26.6208 37.6561 33.0246 34.6598C39.4558 31.6508 48.1175 29.7589 58.5731 29.2328C79.465 28.1816 106.519 32.633 134.653 43.0477C162.787 53.4625 186.229 67.7039 201.415 82.1109C209.016 89.3212 214.367 96.4003 217.298 102.875C220.216 109.322 220.603 114.831 218.926 119.373Z" stroke="url(#paint9_linear_154_30)" stroke-width="10"/>
<defs>
<linearGradient id="paint0_linear_154_30" x1="313.774" y1="126.421" x2="522.266" y2="398.546" gradientUnits="userSpaceOnUse">
<stop stop-color="#4CF5A3"/>
<stop offset="1" stop-color="#5CE7C7"/>
</linearGradient>
<linearGradient id="paint1_linear_154_30" x1="313.774" y1="126.421" x2="522.266" y2="398.546" gradientUnits="userSpaceOnUse">
<stop stop-color="#4CF5A3"/>
<stop offset="1" stop-color="#5CE7C7"/>
</linearGradient>
<linearGradient id="paint2_linear_154_30" x1="313.774" y1="126.421" x2="522.266" y2="398.546" gradientUnits="userSpaceOnUse">
<stop stop-color="#4CF5A3"/>
<stop offset="1" stop-color="#5CE7C7"/>
</linearGradient>
<linearGradient id="paint3_linear_154_30" x1="313.774" y1="126.421" x2="522.266" y2="398.546" gradientUnits="userSpaceOnUse">
<stop stop-color="#4CF5A3"/>
<stop offset="1" stop-color="#5CE7C7"/>
</linearGradient>
<linearGradient id="paint4_linear_154_30" x1="313.774" y1="126.421" x2="522.266" y2="398.546" gradientUnits="userSpaceOnUse">
<stop stop-color="#4CF5A3"/>
<stop offset="1" stop-color="#5CE7C7"/>
</linearGradient>
<linearGradient id="paint5_linear_154_30" x1="313.774" y1="126.421" x2="522.266" y2="398.546" gradientUnits="userSpaceOnUse">
<stop stop-color="#4CF5A3"/>
<stop offset="1" stop-color="#5CE7C7"/>
</linearGradient>
<linearGradient id="paint6_linear_154_30" x1="313.774" y1="126.421" x2="522.266" y2="398.546" gradientUnits="userSpaceOnUse">
<stop stop-color="#4CF5A3"/>
<stop offset="1" stop-color="#5CE7C7"/>
</linearGradient>
<linearGradient id="paint7_linear_154_30" x1="313.774" y1="126.421" x2="522.266" y2="398.546" gradientUnits="userSpaceOnUse">
<stop stop-color="#4CF5A3"/>
<stop offset="1" stop-color="#5CE7C7"/>
</linearGradient>
<linearGradient id="paint8_linear_154_30" x1="203.679" y1="3.0176" x2="35.9012" y2="170.54" gradientUnits="userSpaceOnUse">
<stop stop-color="#47F998"/>
<stop offset="1" stop-color="#60E2D2"/>
</linearGradient>
<linearGradient id="paint9_linear_154_30" x1="151.253" y1="1.59837e-06" x2="100.5" y2="130.911" gradientUnits="userSpaceOnUse">
<stop offset="0.473201" stop-color="#8FD3F4" stop-opacity="0"/>
<stop offset="0.626064" stop-color="#41F3D4" stop-opacity="0.55"/>
<stop offset="0.778634" stop-color="#77F2AC" stop-opacity="0.7"/>
<stop offset="0.964144" stop-color="#D9FF88" stop-opacity="0.85"/>
</linearGradient>
</defs>
</svg>
